<?xml version="1.0" standalone="no"?>
<!DOCTYPE svg PUBLIC "-//W3C//DTD SVG 20010904//EN"
 "http://www.w3.org/TR/2001/REC-SVG-20010904/DTD/svg10.dtd">
<svg version="1.0" xmlns="http://www.w3.org/2000/svg"
 width="400.000000pt" height="400.000000pt" viewBox="0 0 400.000000 400.000000"
 preserveAspectRatio="xMidYMid meet">
<metadata>
Created by potrace 1.14, written by Peter Selinger 2001-2017
</metadata>
<g transform="translate(0.000000,400.000000) scale(0.100000,-0.100000)"
fill="#000000" stroke="none">
<path d="M960 2918 c-99 -51 -135 -102 -194 -278 -27 -80 -109 -318 -183 -530
-144 -412 -149 -436 -107 -494 42 -57 37 -57 769 -54 668 3 670 3 711 25 57
31 133 117 172 196 36 75 37 80 19 95 -9 8 -24 7 -52 -3 -33 -11 -143 -14
-588 -15 l-548 0 -24 25 c-16 16 -25 35 -25 57 0 17 48 178 107 357 98 301
110 329 144 362 20 20 51 39 69 43 56 11 789 7 811 -4 10 -6 19 -21 19 -34 0
-43 -68 -218 -94 -245 l-27 -26 -377 3 c-339 3 -381 5 -414 21 -35 17 -38 17
-38 2 0 -59 72 -196 128 -243 69 -58 83 -59 482 -56 360 3 366 3 408 26 58 31
126 95 146 136 35 74 149 462 149 507 -1 56 -23 100 -65 131 l-33 23 -650 3
-650 2 -65 -32z"/>
<path d="M2505 2697 c-76 -42 -103 -141 -54 -192 19 -19 32 -20 226 -18 165 1
203 -1 192 -11 -8 -7 -159 -102 -336 -210 -178 -109 -332 -209 -343 -223 -11
-14 -25 -43 -30 -64 -14 -49 7 -105 45 -119 16 -6 227 -10 549 -10 598 0 586
-1 667 80 46 46 109 155 123 214 6 25 5 28 -11 21 -81 -34 -92 -35 -438 -33
l-344 3 157 97 c225 140 403 253 434 277 36 28 62 100 54 145 -13 67 -6 66
-451 66 -395 0 -400 -1 -440 -23z"/>
<path d="M1025 1278 c-2 -7 -16 -56 -31 -108 -15 -52 -29 -101 -31 -107 -4 -9
5 -13 25 -13 24 0 32 6 41 30 7 21 17 30 31 30 14 0 24 -9 31 -30 9 -25 16
-30 45 -30 39 0 39 1 19 40 -15 29 -14 31 15 57 39 36 51 94 25 123 -15 17
-31 20 -92 20 -50 0 -75 -4 -78 -12z m121 -53 c4 -8 -1 -26 -10 -40 -13 -19
-25 -25 -52 -25 -29 0 -35 3 -30 16 3 9 9 27 12 40 5 19 13 24 40 24 22 0 37
-6 40 -15z"/>
<path d="M1269 1288 c0 -2 -15 -52 -33 -113 -19 -60 -31 -113 -29 -117 6 -11
183 -10 183 1 0 5 3 16 6 25 5 14 -3 16 -55 16 -54 0 -61 2 -61 20 0 18 7 20
55 20 30 0 55 4 55 9 0 5 3 16 6 25 5 13 -3 16 -46 16 -43 0 -51 3 -46 16 3 9
6 20 6 25 0 5 29 9 64 9 60 0 64 1 68 25 l5 25 -88 0 c-49 0 -89 -1 -90 -2z"/>
<path d="M1485 1278 c-7 -23 -37 -132 -45 -163 -4 -16 -11 -38 -15 -47 -6 -15
-2 -18 23 -18 27 0 32 5 46 47 9 26 16 55 16 65 0 31 13 20 58 -47 23 -36 49
-65 57 -65 9 0 21 24 34 68 11 37 26 91 35 120 l15 52 -33 0 c-31 0 -34 -3
-40 -40 -3 -21 -11 -51 -18 -65 -11 -25 -12 -25 -55 40 -41 62 -69 80 -78 53z"/>
<path d="M1726 1274 c-11 -29 -6 -34 30 -34 31 0 35 -2 29 -21 -16 -50 -45
-155 -45 -162 0 -5 12 -7 27 -5 26 3 30 10 54 93 l26 90 39 5 c31 4 40 10 42
28 3 22 1 22 -96 22 -82 0 -101 -3 -106 -16z"/>
<path d="M2080 1228 c-25 -33 -64 -84 -87 -113 -23 -29 -39 -55 -36 -59 15
-15 54 -4 69 19 14 21 24 25 65 25 46 0 49 -2 49 -25 0 -21 5 -25 31 -25 31 0
31 0 26 43 -3 23 -13 75 -21 115 -9 40 -16 75 -16 78 0 2 -8 4 -17 4 -10 -1
-38 -28 -63 -62z m50 -65 c0 -7 -11 -13 -25 -13 -26 0 -26 0 -8 24 18 23 32
18 33 -11z"/>
<path d="M2382 1263 c-52 -34 -87 -98 -77 -143 14 -65 104 -92 173 -50 35 22
39 32 18 49 -11 10 -21 9 -46 -4 -81 -42 -118 46 -44 104 32 25 61 27 85 5 14
-13 20 -13 38 -2 27 17 27 33 -1 52 -35 25 -98 20 -146 -11z"/>
<path d="M2649 1245 c-19 -25 -58 -76 -86 -114 -29 -38 -53 -72 -53 -75 0 -3
13 -6 30 -6 20 0 35 8 46 25 13 20 24 25 60 25 38 0 44 -3 50 -25 5 -19 13
-25 35 -25 16 0 29 3 29 7 0 4 -10 58 -22 120 -25 132 -36 140 -89 68z m33
-70 c4 -21 1 -25 -19 -25 -24 0 -24 0 -6 25 10 13 19 25 19 25 1 0 4 -11 6
-25z"/>
<path d="M2812 1181 c-18 -61 -32 -115 -32 -120 0 -6 11 -11 26 -11 19 0 28 7
35 30 8 21 18 30 33 30 15 0 25 -9 33 -30 9 -24 17 -30 42 -30 34 0 37 6 19
45 -10 22 -9 28 9 40 22 15 53 73 53 99 0 9 -9 25 -20 36 -16 16 -33 20 -93
20 l-74 0 -31 -109z m146 36 c5 -27 -27 -57 -60 -57 -28 0 -29 2 -23 33 10 46
13 48 48 45 21 -2 33 -9 35 -21z"/>
</g>
</svg>
